<svg width="560" height="560" viewBox="0 0 560 560" fill="none" xmlns="http://www.w3.org/2000/svg">
<mask id="path-1-outside-1_329_5" maskUnits="userSpaceOnUse" x="0" y="-0.000366211" width="560" height="560" fill="black">
<rect fill="white" y="-0.000366211" width="560" height="560"/>
<path d="M377.487 495.716C377.693 498.129 375.928 500.233 373.521 500.474C361.967 501.624 352.797 507.612 343.352 513.497C331.053 521.163 318.123 527.841 305.251 534.53C305.033 534.645 304.804 534.737 304.563 534.818C252.524 552.036 228.705 511.347 185.756 499.922C183.647 499.359 182.26 497.348 182.512 495.175C190.879 423.442 119.904 378.961 107.284 311.802C106.941 309.998 105.485 308.641 103.685 308.331C85.2308 305.067 75.1898 291.182 65.6187 276.907C63.3263 273.493 64.163 270.183 68.4385 267.999C75.8432 264.218 81.7921 258.747 87.0648 252.482C89.0593 250.115 87.9933 246.471 85.0474 245.494C67.1432 239.598 52.437 229.69 42.4992 212.748C40.7684 209.806 42.8545 206.082 46.2703 206.082C49.4683 206.082 51.6003 202.749 50.2477 199.841C46.1901 191.082 43.2328 182.531 40.4359 173.129C39.4502 166.692 33.7992 167.968 28.8131 168.198C26.8874 168.29 25.1222 167.083 24.4918 165.267C10.6224 125.728 30.7044 56.7419 59.6469 21.7201C61.1713 19.8811 63.8994 19.6167 65.7678 21.1224C97.9541 47.0181 130.083 72.8793 161.822 98.4187C163.175 99.4991 165.032 99.683 166.568 98.8899C253.498 54.4776 318.582 60.7992 393.236 98.9933C394.772 99.7864 396.629 99.6025 397.981 98.5221C429.721 72.9827 461.93 47.0641 494.357 20.973C496.214 19.4788 498.907 19.7316 500.443 21.5477C507.894 30.3175 519.861 51.4202 524.365 64.2359C525.374 67.1094 523.265 70.1093 520.227 70.1093H518.313C515.287 70.1093 513.178 73.1092 514.175 75.9711C516.983 83.9709 519.093 91.3155 520.984 99.8094C521.431 101.821 523.208 103.246 525.259 103.246H532.183C534.234 103.246 536 104.683 536.47 106.683C542.247 131.464 541.203 155.21 530.876 178.519C530.807 178.669 530.75 178.818 530.704 178.979C521.763 208.99 506.564 237.954 475.031 245.46C471.833 246.218 470.492 250.034 472.59 252.574C484.121 266.562 500.306 268.758 494.116 277.309C485.875 290.998 473.449 304.469 457.574 308.216C456.004 308.584 454.789 309.802 454.365 311.354C435.452 380.559 371.114 421.109 377.475 495.716H377.487ZM500.031 100.809C496.798 90.8902 494.093 80.7871 490.987 69.9598H506.197C502.61 61.5578 499.469 54.2132 495.984 46.0641C465.197 66.3967 445.516 96.7865 416.825 115.246C436.896 147.9 451.51 180.91 461.208 217.691C462.835 222.886 465.987 225.001 470.802 222.288C511.837 206.024 520.651 155.037 517.981 115.303M143.23 117.659C116.294 92.12 93.0826 69.0863 64.7361 45.317C46.0754 84.8559 32.8135 125.843 47.0383 167.991H60.1054C65.9168 180.945 71.476 193.335 77.1843 206.093H65.3437C71.774 214.587 86.4458 222.012 97.679 221.495C105.783 183.301 121.154 148.314 143.219 117.659H143.23Z"/>
<path d="M474.172 278.194C460.027 286.688 457.964 286.861 443.189 281.344C436.862 284.527 439.12 290.906 437.733 295.941C427.703 366.858 348.888 409.615 356.465 484.21C347.478 482.59 342.641 489.095 336.772 493.773C292.871 529.266 245.681 512.888 205.127 482.486C204.726 482.992 216.727 490.654 203.935 484.003C209.678 406.73 129.9 368.18 118.231 279.734C106.436 288.826 96.5442 285.125 87.4202 279.183C93.564 273.16 99.4671 267.057 105.714 261.344C116.706 251.299 119.904 238.012 122.438 224.081C127.103 198.473 133.98 173.6 147.391 150.865C181.95 100.35 251.275 88.9937 308.391 95.6027C476.613 122.717 399.093 220.782 474.172 278.194Z"/>
<path d="M150.165 267.942L226.046 304.837L219.501 320.066L140.296 284.746L150.165 267.942Z"/>
<path d="M265.247 325.492H294.167L322.891 351.996L294.167 377.501H265.282L238.07 351.422L265.247 325.492Z"/>
<path d="M333.941 305.228L340.532 320.043L420.115 284.527L411.163 267.942L333.941 305.228Z"/>
<path d="M257.235 316.112L224.143 276.321L216.727 284.309L238.334 315.239L219.467 329.606L227.651 340.974L257.235 316.112Z"/>
<path d="M299.29 317.377L332.738 277.597L340.222 285.585L318.398 316.503L337.46 330.882L329.196 342.238L299.29 317.377Z"/>
<path d="M356.992 230.725C355.032 227.621 353.404 225.035 351.364 221.782C340.039 227.242 328.943 232.575 317.114 238.276C320.198 242.839 322.295 245.954 324.622 249.402C335.408 243.184 345.931 237.115 357.003 230.725H356.992Z"/>
<path d="M500.432 102.694L515.493 102.913C524.927 141.923 513.51 206.921 470.79 222.311C465.976 225.012 462.824 222.897 461.196 217.713C451.511 180.933 436.896 147.934 416.814 115.269C445.504 96.8095 465.185 66.4082 495.973 46.0871C499.458 54.2362 502.598 61.5808 506.186 69.9828H490.975C494.07 80.81 496.775 90.9017 500.019 100.832"/>
<path d="M143.219 117.682C121.154 148.348 105.783 183.324 97.679 221.518C86.4458 222.035 71.774 214.61 65.3436 206.116H77.1843C71.4645 193.358 65.9053 180.968 60.1053 168.014H47.0383C32.8135 125.866 46.0754 84.8904 64.7361 45.34C93.0711 69.0978 116.294 92.143 143.23 117.682H143.219Z"/>
<path d="M387.585 353.445C396.457 360.686 399.506 369.651 394.336 373.766C393.259 370.984 391.115 364.973 388.227 369.605C376.948 387.731 365.222 405.615 354.871 424.258C350.94 431.35 349.083 440.131 348.28 448.338C345.587 473.05 323.889 489.325 301.056 492.497C266.978 498.026 217.254 491.808 212.188 449.441C209.999 429.948 200.645 413.626 190.753 397.512C184.965 388.087 178.305 379.202 172.047 370.076C168.769 364.823 167.015 370.49 165.628 373.766C160.424 369.685 163.45 360.755 172.517 353.295C177.56 390.811 232.625 395.754 262.794 395.282C302.626 393.777 374.69 403.523 387.585 353.445ZM351.937 402.156C329.562 403.972 308.965 412.052 286.269 407.994C282.532 407.443 278.578 407.408 274.841 407.948C251.378 412.316 230.596 403.523 207.362 402.397C216.016 420.603 216.051 440.269 225.393 456.441C228.934 445.35 232.465 434.281 235.617 424.362C265.74 427.649 294.637 427.5 324.439 424.465C327.602 434.557 331.041 445.499 334.503 456.51C341.323 438.499 344.418 420.362 351.926 402.144L351.937 402.156ZM320.347 433.281C293.147 440.223 266.474 439.855 239.583 433.522C239.205 441.338 231.823 459.705 236.568 464.717C249.28 470.452 262.278 474.728 276.561 475.107C292.986 475.544 308.265 471.843 322.926 464.981C328.474 460.993 320.599 440.959 320.335 433.281H320.347Z"/>
<path d="M204.737 229.725C206.64 226.621 208.222 224.035 210.216 220.782C221.232 226.242 232.029 231.575 243.526 237.276C240.534 241.839 238.483 244.954 236.225 248.402C225.736 242.184 215.501 236.115 204.737 229.725Z"/>
<path d="M395.838 337.031C393.431 335.491 390.531 329.48 391.184 327.94C392.858 325.779 396.296 324.17 399.093 324.009C408.481 326.618 409.799 338.1 400.95 344.537C396.044 347.928 384.02 350.364 382.656 342.123C386.76 339.905 391.402 339.698 395.907 338.928C395.884 338.296 395.861 337.664 395.826 337.043L395.838 337.031Z"/>
<path d="M163.977 338.87C168.505 339.663 173.17 339.905 177.285 342.135C172.643 356.421 145.488 341.169 154.819 328.388C157.581 322.388 165.33 323.411 168.642 327.767C169.33 329.353 166.442 335.204 164.184 336.985C164.115 337.618 164.046 338.238 163.989 338.87H163.977Z"/>
<path d="M151.495 304.94C163.92 304.665 162.808 319.607 151.415 319.687C142.428 320.618 141.236 303.285 151.495 304.94Z"/>
<path d="M408.733 319.676C397.259 319.894 395.952 304.492 408.561 304.929C418.614 303.377 417.467 320.388 408.733 319.676Z"/>
<path d="M351.937 402.156C344.441 420.362 341.323 438.522 334.514 456.522C331.053 445.51 327.625 434.568 324.45 424.477C294.648 427.511 265.752 427.66 235.628 424.373C232.465 434.292 228.934 445.361 225.404 456.453C216.062 440.269 216.028 420.615 207.374 402.408C230.596 403.523 251.401 412.316 274.853 407.948C278.589 407.42 282.544 407.443 286.281 408.006C308.976 412.063 329.562 403.983 351.948 402.167L351.937 402.156Z"/>
<path d="M320.347 433.281C320.633 440.947 328.451 460.981 322.937 464.981C308.265 471.843 292.998 475.544 276.561 475.107C262.278 474.728 249.28 470.452 236.568 464.717C231.789 459.717 239.216 441.338 239.583 433.522C266.474 439.855 293.135 440.223 320.347 433.281Z"/>
<path d="M286.407 365.674C289.387 358.939 290.808 350.594 300.242 352.226C300.826 352.226 302.397 356.318 301.812 356.95C297.628 360.582 290.888 361.008 288.607 366.869C287.874 366.467 287.14 366.065 286.407 365.674Z"/>
<path d="M272.079 367.295C267.391 358.019 255.332 364.364 259.023 352.387C267.345 350.399 272.915 356.341 272.079 367.295Z"/>
</mask>
<path d="M377.487 495.716C377.693 498.129 375.928 500.233 373.521 500.474C361.967 501.624 352.797 507.612 343.352 513.497C331.053 521.163 318.123 527.841 305.251 534.53C305.033 534.645 304.804 534.737 304.563 534.818C252.524 552.036 228.705 511.347 185.756 499.922C183.647 499.359 182.26 497.348 182.512 495.175C190.879 423.442 119.904 378.961 107.284 311.802C106.941 309.998 105.485 308.641 103.685 308.331C85.2308 305.067 75.1898 291.182 65.6187 276.907C63.3263 273.493 64.163 270.183 68.4385 267.999C75.8432 264.218 81.7921 258.747 87.0648 252.482C89.0593 250.115 87.9933 246.471 85.0474 245.494C67.1432 239.598 52.437 229.69 42.4992 212.748C40.7684 209.806 42.8545 206.082 46.2703 206.082C49.4683 206.082 51.6003 202.749 50.2477 199.841C46.1901 191.082 43.2328 182.531 40.4359 173.129C39.4502 166.692 33.7992 167.968 28.8131 168.198C26.8874 168.29 25.1222 167.083 24.4918 165.267C10.6224 125.728 30.7044 56.7419 59.6469 21.7201C61.1713 19.8811 63.8994 19.6167 65.7678 21.1224C97.9541 47.0181 130.083 72.8793 161.822 98.4187C163.175 99.4991 165.032 99.683 166.568 98.8899C253.498 54.4776 318.582 60.7992 393.236 98.9933C394.772 99.7864 396.629 99.6025 397.981 98.5221C429.721 72.9827 461.93 47.0641 494.357 20.973C496.214 19.4788 498.907 19.7316 500.443 21.5477C507.894 30.3175 519.861 51.4202 524.365 64.2359C525.374 67.1094 523.265 70.1093 520.227 70.1093H518.313C515.287 70.1093 513.178 73.1092 514.175 75.9711C516.983 83.9709 519.093 91.3155 520.984 99.8094C521.431 101.821 523.208 103.246 525.259 103.246H532.183C534.234 103.246 536 104.683 536.47 106.683C542.247 131.464 541.203 155.21 530.876 178.519C530.807 178.669 530.75 178.818 530.704 178.979C521.763 208.99 506.564 237.954 475.031 245.46C471.833 246.218 470.492 250.034 472.59 252.574C484.121 266.562 500.306 268.758 494.116 277.309C485.875 290.998 473.449 304.469 457.574 308.216C456.004 308.584 454.789 309.802 454.365 311.354C435.452 380.559 371.114 421.109 377.475 495.716H377.487ZM500.031 100.809C496.798 90.8902 494.093 80.7871 490.987 69.9598H506.197C502.61 61.5578 499.469 54.2132 495.984 46.0641C465.197 66.3967 445.516 96.7865 416.825 115.246C436.896 147.9 451.51 180.91 461.208 217.691C462.835 222.886 465.987 225.001 470.802 222.288C511.837 206.024 520.651 155.037 517.981 115.303M143.23 117.659C116.294 92.12 93.0826 69.0863 64.7361 45.317C46.0754 84.8559 32.8135 125.843 47.0383 167.991H60.1054C65.9168 180.945 71.476 193.335 77.1843 206.093H65.3437C71.774 214.587 86.4458 222.012 97.679 221.495C105.783 183.301 121.154 148.314 143.219 117.659H143.23Z" fill="black"/>
<path d="M474.172 278.194C460.027 286.688 457.964 286.861 443.189 281.344C436.862 284.527 439.12 290.906 437.733 295.941C427.703 366.858 348.888 409.615 356.465 484.21C347.478 482.59 342.641 489.095 336.772 493.773C292.871 529.266 245.681 512.888 205.127 482.486C204.726 482.992 216.727 490.654 203.935 484.003C209.678 406.73 129.9 368.18 118.231 279.734C106.436 288.826 96.5442 285.125 87.4202 279.183C93.564 273.16 99.4671 267.057 105.714 261.344C116.706 251.299 119.904 238.012 122.438 224.081C127.103 198.473 133.98 173.6 147.391 150.865C181.95 100.35 251.275 88.9937 308.391 95.6027C476.613 122.717 399.093 220.782 474.172 278.194Z" fill="#D1D1D1"/>
<path d="M150.165 267.942L226.046 304.837L219.501 320.066L140.296 284.746L150.165 267.942Z" fill="black"/>
<path d="M265.247 325.492H294.167L322.891 351.996L294.167 377.501H265.282L238.07 351.422L265.247 325.492Z" fill="black"/>
<path d="M333.941 305.228L340.532 320.043L420.115 284.527L411.163 267.942L333.941 305.228Z" fill="black"/>
<path d="M257.235 316.112L224.143 276.321L216.727 284.309L238.334 315.239L219.467 329.606L227.651 340.974L257.235 316.112Z" fill="black"/>
<path d="M299.29 317.377L332.738 277.597L340.222 285.585L318.398 316.503L337.46 330.882L329.196 342.238L299.29 317.377Z" fill="black"/>
<path d="M356.992 230.725C355.032 227.621 353.404 225.035 351.364 221.782C340.039 227.242 328.943 232.575 317.114 238.276C320.198 242.839 322.295 245.954 324.622 249.402C335.408 243.184 345.931 237.115 357.003 230.725H356.992Z" fill="black"/>
<path d="M500.432 102.694L515.493 102.913C524.927 141.923 513.51 206.921 470.79 222.311C465.976 225.012 462.824 222.897 461.196 217.713C451.511 180.933 436.896 147.934 416.814 115.269C445.504 96.8095 465.185 66.4082 495.973 46.0871C499.458 54.2362 502.598 61.5808 506.186 69.9828H490.975C494.07 80.81 496.775 90.9017 500.019 100.832" fill="#D1D1D1"/>
<path d="M143.219 117.682C121.154 148.348 105.783 183.324 97.679 221.518C86.4458 222.035 71.774 214.61 65.3436 206.116H77.1843C71.4645 193.358 65.9053 180.968 60.1053 168.014H47.0383C32.8135 125.866 46.0754 84.8904 64.7361 45.34C93.0711 69.0978 116.294 92.143 143.23 117.682H143.219Z" fill="#D1D1D1"/>
<path d="M387.585 353.445C396.457 360.686 399.506 369.651 394.336 373.766C393.259 370.984 391.115 364.973 388.227 369.605C376.948 387.731 365.222 405.615 354.871 424.258C350.94 431.35 349.083 440.131 348.28 448.338C345.587 473.05 323.889 489.325 301.056 492.497C266.978 498.026 217.254 491.808 212.188 449.441C209.999 429.948 200.645 413.626 190.753 397.512C184.965 388.087 178.305 379.202 172.047 370.076C168.769 364.823 167.015 370.49 165.628 373.766C160.424 369.685 163.45 360.755 172.517 353.295C177.56 390.811 232.625 395.754 262.794 395.282C302.626 393.777 374.69 403.523 387.585 353.445ZM351.937 402.156C329.562 403.972 308.965 412.052 286.269 407.994C282.532 407.443 278.578 407.408 274.841 407.948C251.378 412.316 230.596 403.523 207.362 402.397C216.016 420.603 216.051 440.269 225.393 456.441C228.934 445.35 232.465 434.281 235.617 424.362C265.74 427.649 294.637 427.5 324.439 424.465C327.602 434.557 331.041 445.499 334.503 456.51C341.323 438.499 344.418 420.362 351.926 402.144L351.937 402.156ZM320.347 433.281C293.147 440.223 266.474 439.855 239.583 433.522C239.205 441.338 231.823 459.705 236.568 464.717C249.28 470.452 262.278 474.728 276.561 475.107C292.986 475.544 308.265 471.843 322.926 464.981C328.474 460.993 320.599 440.959 320.335 433.281H320.347Z" fill="black"/>
<path d="M204.737 229.725C206.64 226.621 208.222 224.035 210.216 220.782C221.232 226.242 232.029 231.575 243.526 237.276C240.534 241.839 238.483 244.954 236.225 248.402C225.736 242.184 215.501 236.115 204.737 229.725Z" fill="black"/>
<path d="M395.838 337.031C393.431 335.491 390.531 329.48 391.184 327.94C392.858 325.779 396.296 324.17 399.093 324.009C408.481 326.618 409.799 338.1 400.95 344.537C396.044 347.928 384.02 350.364 382.656 342.123C386.76 339.905 391.402 339.698 395.907 338.928C395.884 338.296 395.861 337.664 395.826 337.043L395.838 337.031Z" fill="black"/>
<path d="M163.977 338.87C168.505 339.663 173.17 339.905 177.285 342.135C172.643 356.421 145.488 341.169 154.819 328.388C157.581 322.388 165.33 323.411 168.642 327.767C169.33 329.353 166.442 335.204 164.184 336.985C164.115 337.618 164.046 338.238 163.989 338.87H163.977Z" fill="black"/>
<path d="M151.495 304.94C163.92 304.665 162.808 319.607 151.415 319.687C142.428 320.618 141.236 303.285 151.495 304.94Z" fill="black"/>
<path d="M408.733 319.676C397.259 319.894 395.952 304.492 408.561 304.929C418.614 303.377 417.467 320.388 408.733 319.676Z" fill="black"/>
<path d="M351.937 402.156C344.441 420.362 341.323 438.522 334.514 456.522C331.053 445.51 327.625 434.568 324.45 424.477C294.648 427.511 265.752 427.66 235.628 424.373C232.465 434.292 228.934 445.361 225.404 456.453C216.062 440.269 216.028 420.615 207.374 402.408C230.596 403.523 251.401 412.316 274.853 407.948C278.589 407.42 282.544 407.443 286.281 408.006C308.976 412.063 329.562 403.983 351.948 402.167L351.937 402.156Z" fill="#D1D1D1"/>
<path d="M320.347 433.281C320.633 440.947 328.451 460.981 322.937 464.981C308.265 471.843 292.998 475.544 276.561 475.107C262.278 474.728 249.28 470.452 236.568 464.717C231.789 459.717 239.216 441.338 239.583 433.522C266.474 439.855 293.135 440.223 320.347 433.281Z" fill="#D1D1D1"/>
<path d="M286.407 365.674C289.387 358.939 290.808 350.594 300.242 352.226C300.826 352.226 302.397 356.318 301.812 356.95C297.628 360.582 290.888 361.008 288.607 366.869C287.874 366.467 287.14 366.065 286.407 365.674Z" fill="#D1D1D1"/>
<path d="M272.079 367.295C267.391 358.019 255.332 364.364 259.023 352.387C267.345 350.399 272.915 356.341 272.079 367.295Z" fill="#D1D1D1"/>
<path d="M236.568 464.717L232.456 473.832C245.761 479.835 260.143 484.675 276.295 485.104L276.561 475.107L276.826 465.111C264.413 464.781 252.799 461.069 240.681 455.602L236.568 464.717ZM377.487 495.716L397.414 494.012L395.85 475.716H377.487V495.716ZM373.521 500.474L375.5 520.376L375.508 520.375L375.516 520.374L373.521 500.474ZM343.352 513.497L332.775 496.522L332.772 496.524L343.352 513.497ZM305.251 534.53L296.028 516.784L295.972 516.813L295.916 516.843L305.251 534.53ZM304.563 534.818L310.845 553.805L310.874 553.796L310.903 553.786L304.563 534.818ZM185.756 499.922L180.596 519.245L180.605 519.248L180.614 519.25L185.756 499.922ZM182.512 495.175L162.647 492.858L162.645 492.869L182.512 495.175ZM107.284 311.802L126.94 308.109L126.936 308.084L126.931 308.059L107.284 311.802ZM103.685 308.331L100.202 328.025L100.244 328.033L100.286 328.04L103.685 308.331ZM65.6187 276.907L82.2306 265.769L82.2264 265.763L82.2222 265.757L65.6187 276.907ZM68.4385 267.999L59.3422 250.187L59.3409 250.188L68.4385 267.999ZM87.0648 252.482L71.7684 239.598L71.7637 239.603L87.0648 252.482ZM85.0474 245.494L91.3432 226.511L91.3234 226.504L91.3035 226.498L85.0474 245.494ZM42.4992 212.748L59.7503 202.629L59.7441 202.618L59.7379 202.608L42.4992 212.748ZM50.2477 199.841L32.1007 208.248L32.107 208.262L32.1134 208.275L50.2477 199.841ZM40.4359 173.129L20.6664 176.157L20.8744 177.514L21.2661 178.831L40.4359 173.129ZM28.8131 168.198L27.892 148.219L27.8756 148.22L27.8592 148.221L28.8131 168.198ZM24.4918 165.267L43.3857 158.708L43.3751 158.677L43.3644 158.647L24.4918 165.267ZM59.6469 21.7201L44.2494 8.95606L44.2398 8.96776L44.2301 8.97946L59.6469 21.7201ZM65.7678 21.1224L53.218 36.6949L53.2243 36.7L53.2306 36.7051L65.7678 21.1224ZM161.822 98.4187L149.284 114.001L149.312 114.023L149.34 114.045L161.822 98.4187ZM166.568 98.8899L157.469 81.0796L157.43 81.0993L157.392 81.119L166.568 98.8899ZM393.236 98.9933L402.412 81.2225L402.378 81.2053L402.345 81.1883L393.236 98.9933ZM397.981 98.5221L410.464 114.149L410.492 114.126L410.519 114.104L397.981 98.5221ZM494.357 20.973L506.894 36.5553L506.895 36.5548L494.357 20.973ZM500.443 21.5477L485.173 34.4632L485.187 34.48L485.201 34.4968L500.443 21.5477ZM524.365 64.2359L543.236 57.6115L543.234 57.6037L524.365 64.2359ZM514.175 75.9711L495.289 82.5519L495.297 82.5738L495.304 82.5957L514.175 75.9711ZM520.984 99.8094L540.508 95.4704L540.506 95.4626L520.984 99.8094ZM536.47 106.683L555.947 102.142L555.943 102.125L555.939 102.108L536.47 106.683ZM530.876 178.519L549.044 186.882L549.104 186.752L549.161 186.621L530.876 178.519ZM530.704 178.979L549.871 184.689L549.906 184.575L549.938 184.46L530.704 178.979ZM475.031 245.46L479.647 264.92L479.655 264.918L479.662 264.916L475.031 245.46ZM472.59 252.574L488.022 239.853L488.017 239.846L488.011 239.84L472.59 252.574ZM494.116 277.309L477.915 265.582L477.418 266.268L476.982 266.994L494.116 277.309ZM457.574 308.216L462.135 327.689L462.152 327.685L462.168 327.681L457.574 308.216ZM454.365 311.354L435.072 306.081L435.072 306.082L454.365 311.354ZM377.475 495.716L357.547 497.415L359.108 515.716H377.475V495.716ZM490.987 69.9598V49.9598H464.442L471.762 75.4753L490.987 69.9598ZM506.197 69.9598V89.9598H536.485L524.591 62.1058L506.197 69.9598ZM495.984 46.0641L514.374 38.2008L504.955 16.1723L484.963 29.375L495.984 46.0641ZM416.825 115.246L406.004 98.4262L389.527 109.027L399.787 125.718L416.825 115.246ZM461.208 217.691L441.869 222.789L441.985 223.233L442.122 223.67L461.208 217.691ZM470.802 222.288L463.433 203.695L462.168 204.196L460.984 204.864L470.802 222.288ZM143.23 117.659V137.659H193.393L156.991 103.146L143.23 117.659ZM64.7361 45.317L77.5868 29.9918L57.7169 13.3304L46.6493 36.7808L64.7361 45.317ZM47.0383 167.991L28.0884 174.387L32.6799 187.991H47.0383V167.991ZM60.1054 167.991L78.3531 159.804L73.0532 147.991H60.1054V167.991ZM77.1843 206.093V226.093H108.043L95.4403 197.925L77.1843 206.093ZM65.3437 206.093V186.093H25.1177L49.3978 218.165L65.3437 206.093ZM97.679 221.495L98.5989 241.474L114.036 240.763L117.243 225.646L97.679 221.495ZM143.219 117.659V97.6594H132.973L126.987 105.975L143.219 117.659ZM474.172 278.194L484.468 295.34L509.702 280.187L486.32 262.307L474.172 278.194ZM443.189 281.344L450.185 262.607L442.002 259.552L434.199 263.478L443.189 281.344ZM437.733 295.941L418.451 290.629L418.11 291.868L417.93 293.14L437.733 295.941ZM356.465 484.21L352.915 503.893L379.045 508.605L376.362 482.189L356.465 484.21ZM336.772 493.773L324.306 478.134L324.252 478.177L324.198 478.22L336.772 493.773ZM205.127 482.486L217.124 466.484L201.553 454.811L189.459 470.056L205.127 482.486ZM203.935 484.003L183.99 482.521L183.013 495.668L194.71 501.749L203.935 484.003ZM118.231 279.734L138.059 277.118L133.518 242.699L106.021 263.894L118.231 279.734ZM87.4202 279.183L73.4194 264.901L55.626 282.343L76.5053 295.942L87.4202 279.183ZM105.714 261.344L92.222 246.581L92.2175 246.585L105.714 261.344ZM122.438 224.081L102.761 220.497L102.76 220.503L122.438 224.081ZM147.391 150.865L130.884 139.572L130.506 140.126L130.165 140.704L147.391 150.865ZM308.391 95.6027L311.574 75.8575L311.134 75.7865L310.69 75.7352L308.391 95.6027ZM150.165 267.942L158.911 249.955L142.283 241.87L132.919 257.813L150.165 267.942ZM226.046 304.837L244.421 312.734L251.958 295.197L234.791 286.85L226.046 304.837ZM219.501 320.066L211.355 338.332L229.871 346.589L237.876 327.963L219.501 320.066ZM140.296 284.746L123.05 274.617L111.724 293.903L132.15 303.012L140.296 284.746ZM265.247 325.492V305.492H257.237L251.441 311.021L265.247 325.492ZM294.167 325.492L307.729 310.793L301.984 305.492H294.167V325.492ZM322.891 351.996L336.17 366.952L352.693 352.281L336.454 337.298L322.891 351.996ZM294.167 377.501V397.501H301.764L307.446 392.457L294.167 377.501ZM265.282 377.501L251.443 391.941L257.245 397.501H265.282V377.501ZM238.07 351.422L224.264 336.951L209.131 351.389L224.231 365.861L238.07 351.422ZM333.941 305.228L325.245 287.217L307.789 295.646L315.668 313.357L333.941 305.228ZM340.532 320.043L322.259 328.172L330.397 346.468L348.683 338.307L340.532 320.043ZM420.115 284.527L428.266 302.791L447.957 294.003L437.715 275.028L420.115 284.527ZM411.163 267.942L428.763 258.442L419.683 241.619L402.467 249.931L411.163 267.942ZM257.235 316.112L270.102 331.424L285.335 318.623L272.612 303.324L257.235 316.112ZM224.143 276.321L239.52 263.533L224.969 246.035L209.486 262.713L224.143 276.321ZM216.727 284.309L202.07 270.701L191.088 282.53L200.331 295.762L216.727 284.309ZM238.334 315.239L250.45 331.151L265.722 319.521L254.729 303.786L238.334 315.239ZM219.467 329.606L207.35 313.695L191.859 325.491L203.236 341.292L219.467 329.606ZM227.651 340.974L211.42 352.659L224.015 370.153L240.518 356.285L227.651 340.974ZM299.29 317.377L283.982 304.506L271.039 319.899L286.505 332.756L299.29 317.377ZM332.738 277.597L347.332 263.922L331.928 247.482L317.429 264.726L332.738 277.597ZM340.222 285.585L356.562 297.118L365.961 283.803L354.817 271.91L340.222 285.585ZM318.398 316.503L302.059 304.97L290.884 320.801L306.354 332.47L318.398 316.503ZM337.46 330.882L353.631 342.651L365.199 326.755L349.504 314.915L337.46 330.882ZM329.196 342.238L316.41 357.618L332.814 371.255L345.367 354.007L329.196 342.238ZM356.992 230.725L340.082 241.405L345.969 250.725H356.992V230.725ZM351.364 221.782L368.307 211.155L358.798 195.996L342.679 203.767L351.364 221.782ZM317.114 238.276L308.431 220.259L287.589 230.304L300.543 249.474L317.114 238.276ZM324.622 249.402L308.044 260.589L318.467 276.036L334.611 266.729L324.622 249.402ZM357.003 230.725L367.001 248.047L431.667 210.725H357.003V230.725ZM515.493 102.913L534.933 98.2118L531.288 83.1397L515.783 82.9149L515.493 102.913ZM470.79 222.311L464.012 203.495L462.451 204.057L461.004 204.869L470.79 222.311ZM461.196 217.713L441.856 222.807L441.975 223.259L442.115 223.705L461.196 217.713ZM416.814 115.269L405.992 98.4492L389.514 109.051L399.776 125.743L416.814 115.269ZM495.973 46.0871L514.362 38.2238L504.946 16.2011L484.956 29.3952L495.973 46.0871ZM506.186 69.9828V89.9828H536.473L524.579 62.1288L506.186 69.9828ZM490.975 69.9828V49.9828H464.458L471.746 75.4794L490.975 69.9828ZM143.219 117.682V97.6824H132.97L126.985 106.001L143.219 117.682ZM97.679 221.518L98.5989 241.497L114.036 240.786L117.243 225.669L97.679 221.518ZM65.3436 206.116V186.116H25.1177L49.3978 218.188L65.3436 206.116ZM77.1843 206.116V226.116H108.069L95.4342 197.934L77.1843 206.116ZM60.1053 168.014L78.3591 159.841L73.0636 148.014H60.1053V168.014ZM47.0383 168.014L28.0884 174.41L32.6799 188.014H47.0383V168.014ZM64.7361 45.34L77.5862 30.0143L57.7142 13.3523L46.6484 36.8058L64.7361 45.34ZM143.23 117.682V137.682H193.393L156.991 103.169L143.23 117.682ZM387.585 353.445L400.231 337.95L376.012 318.183L368.217 348.457L387.585 353.445ZM394.336 373.766L375.687 380.99L385.511 406.353L406.792 389.414L394.336 373.766ZM388.227 369.605L371.256 359.022L371.251 359.03L371.246 359.038L388.227 369.605ZM354.871 424.258L337.385 414.55L337.38 414.561L354.871 424.258ZM348.28 448.338L368.163 450.505L368.175 450.395L368.186 450.284L348.28 448.338ZM301.056 492.497L298.303 472.688L298.078 472.719L297.853 472.755L301.056 492.497ZM212.188 449.441L192.313 451.673L192.321 451.745L192.329 451.816L212.188 449.441ZM190.753 397.512L207.798 387.049L207.796 387.045L190.753 397.512ZM172.047 370.076L155.08 380.665L155.308 381.031L155.553 381.387L172.047 370.076ZM165.628 373.766L153.287 389.505L173.855 405.631L184.045 381.564L165.628 373.766ZM172.517 353.295L192.338 350.63L187.552 315.026L159.81 337.851L172.517 353.295ZM262.794 395.282L263.107 415.28L263.328 415.276L263.55 415.268L262.794 395.282ZM286.269 407.994L289.789 388.307L289.49 388.253L289.19 388.209L286.269 407.994ZM274.841 407.948L271.98 388.154L271.579 388.212L271.181 388.286L274.841 407.948ZM207.362 402.397L208.331 382.42L174.953 380.802L189.299 410.983L207.362 402.397ZM225.393 456.441L208.074 466.445L230.691 505.597L244.445 462.525L225.393 456.441ZM235.617 424.362L237.787 404.48L221.514 402.704L216.556 418.305L235.617 424.362ZM324.439 424.465L343.523 418.482L338.643 402.916L322.413 404.568L324.439 424.465ZM334.503 456.51L315.423 462.508L332.749 517.619L353.207 463.593L334.503 456.51ZM351.926 402.144L366.133 388.067L344.919 366.657L333.434 394.523L351.926 402.144ZM320.347 433.281L340.333 432.534L339.613 413.281H320.347V433.281ZM239.583 433.522L244.168 414.055L220.768 408.544L219.606 432.556L239.583 433.522ZM236.568 464.717L222.112 478.537L251.091 450.965L236.568 464.717ZM276.561 475.107L277.092 455.114L276.029 495.1L276.561 475.107ZM322.926 464.981L331.404 483.095L333.089 482.306L334.6 481.22L322.926 464.981ZM320.335 433.281V413.281H299.637L300.347 433.967L320.335 433.281ZM204.737 229.725L187.687 219.271L177.083 236.565L194.527 246.922L204.737 229.725ZM210.216 220.782L219.098 202.863L202.721 194.745L193.166 210.328L210.216 220.782ZM243.526 237.276L260.252 248.242L272.619 229.379L252.411 219.358L243.526 237.276ZM236.225 248.402L226.025 265.606L242.477 275.36L252.956 259.359L236.225 248.402ZM395.838 337.031L409.989 351.165L427.552 333.58L406.617 320.185L395.838 337.031ZM391.184 327.94L375.372 315.694L373.785 317.743L372.772 320.129L391.184 327.94ZM399.093 324.009L404.449 304.739L401.254 303.851L397.944 304.042L399.093 324.009ZM400.95 344.537L412.321 360.99L412.52 360.853L412.715 360.711L400.95 344.537ZM382.656 342.123L373.145 324.529L360.595 331.314L362.925 345.389L382.656 342.123ZM395.907 338.928L399.277 358.642L416.528 355.693L415.893 338.203L395.907 338.928ZM395.826 337.043L381.676 322.909L375.363 329.23L375.857 338.149L395.826 337.043ZM163.977 338.87V318.87L160.527 358.57L163.977 338.87ZM177.285 342.135L196.306 348.315L201.451 332.482L186.814 324.55L177.285 342.135ZM154.819 328.388L170.973 340.18L172.15 338.567L172.986 336.752L154.819 328.388ZM168.642 327.767L186.992 319.811L186.028 317.589L184.562 315.661L168.642 327.767ZM164.184 336.985L151.796 321.284L145.208 326.481L144.301 334.822L164.184 336.985ZM163.989 338.87V358.87H182.258L183.907 340.676L163.989 338.87ZM151.495 304.94L148.309 324.685L150.112 324.976L151.939 324.936L151.495 304.94ZM151.415 319.687L151.273 299.688L150.311 299.694L149.354 299.794L151.415 319.687ZM408.733 319.676L410.359 299.742L409.357 299.66L408.352 299.679L408.733 319.676ZM408.561 304.929L407.869 324.917L409.751 324.982L411.612 324.695L408.561 304.929ZM334.514 456.522L315.435 462.52L332.77 517.661L353.221 463.598L334.514 456.522ZM324.45 424.477L343.528 418.474L338.637 402.929L322.424 404.58L324.45 424.477ZM235.628 424.373L237.798 404.491L221.543 402.717L216.574 418.296L235.628 424.373ZM225.404 456.453L208.083 466.451L230.725 505.676L244.462 462.519L225.404 456.453ZM207.374 402.408L208.333 382.431L174.972 380.83L189.311 410.994L207.374 402.408ZM274.853 407.948L272.051 388.146L271.619 388.207L271.191 388.287L274.853 407.948ZM286.281 408.006L289.8 388.318L289.531 388.27L289.261 388.229L286.281 408.006ZM351.948 402.167L353.566 422.102L396.711 418.601L366.08 388.015L351.948 402.167ZM322.937 464.981L331.41 483.098L333.138 482.29L334.682 481.17L322.937 464.981ZM286.407 365.674L268.117 357.581L260.594 374.584L277.003 383.326L286.407 365.674ZM300.242 352.226L296.832 371.933L298.524 372.226H300.242V352.226ZM301.812 356.95L314.923 372.053L315.752 371.334L316.496 370.529L301.812 356.95ZM288.607 366.869L278.991 384.406L298.979 395.367L307.246 374.122L288.607 366.869ZM272.079 367.295L254.229 376.316L286.561 440.286L292.021 368.818L272.079 367.295ZM259.023 352.387L254.375 332.935L243.272 335.588L239.91 346.497L259.023 352.387ZM377.487 495.716L357.559 497.419C356.825 488.827 363.17 481.412 371.525 480.574L373.521 500.474L375.516 520.374C388.686 519.054 398.561 507.432 397.414 494.012L377.487 495.716ZM373.521 500.474L371.541 480.572C354.488 482.269 341.255 491.239 332.775 496.522L343.352 513.497L353.928 530.471C364.339 523.985 369.445 520.978 375.5 520.376L373.521 500.474ZM343.352 513.497L332.772 496.524C321.261 503.699 309.063 510.01 296.028 516.784L305.251 534.53L314.473 552.277C327.183 545.672 340.844 538.627 353.931 530.469L343.352 513.497ZM305.251 534.53L295.916 516.843C296.921 516.312 297.756 516.005 298.223 515.849L304.563 534.818L310.903 553.786C311.851 553.469 313.145 552.979 314.586 552.218L305.251 534.53ZM304.563 534.818L298.281 515.83C279.175 522.151 266.025 518.34 251.116 510.439C242.073 505.647 235.959 501.441 224.986 495.218C215.261 489.704 204.016 484.084 190.897 480.595L185.756 499.922L180.614 519.25C188.97 521.473 196.809 525.224 205.255 530.014C212.454 534.095 223.6 541.127 232.386 545.783C253.133 556.778 277.912 564.702 310.845 553.805L304.563 534.818ZM185.756 499.922L190.916 480.6C198.275 482.565 203.285 489.669 202.378 497.482L182.512 495.175L162.645 492.869C161.234 505.027 169.018 516.154 180.596 519.245L185.756 499.922ZM182.512 495.175L202.377 497.493C207.44 454.091 188.075 419.763 169.601 390.973C150.061 360.52 132.335 336.815 126.94 308.109L107.284 311.802L87.6284 315.496C94.8542 353.948 118.925 386.063 135.936 412.574C154.013 440.747 165.951 464.527 162.647 492.858L182.512 495.175ZM107.284 311.802L126.931 308.059C124.941 297.617 116.637 290.269 107.084 288.622L103.685 308.331L100.286 328.04C94.3325 327.014 88.9398 322.378 87.6379 315.546L107.284 311.802ZM103.685 308.331L107.169 288.637C98.0638 287.026 92.2245 280.675 82.2306 265.769L65.6187 276.907L49.0069 288.045C58.1551 301.689 72.3979 323.107 100.202 328.025L103.685 308.331ZM65.6187 276.907L82.2222 265.757C83.336 267.415 85.4674 271.907 83.726 277.726C82.0821 283.219 78.2984 285.421 77.5361 285.81L68.4385 267.999L59.3409 250.188C54.3031 252.761 47.9633 257.71 45.4053 266.258C42.7497 275.131 45.609 282.985 49.0153 288.057L65.6187 276.907ZM68.4385 267.999L77.5347 285.811C88.0941 280.418 96.0446 272.872 102.366 265.362L87.0648 252.482L71.7637 239.603C67.5397 244.621 63.5922 248.017 59.3422 250.187L68.4385 267.999ZM87.0648 252.482L102.361 265.367C113.681 251.928 107.396 231.835 91.3432 226.511L85.0474 245.494L78.7517 264.477C68.5901 261.107 64.4371 248.301 71.7684 239.598L87.0648 252.482ZM85.0474 245.494L91.3035 226.498C76.9142 221.759 66.693 214.465 59.7503 202.629L42.4992 212.748L25.248 222.867C38.1811 244.916 57.3723 257.437 78.7914 264.491L85.0474 245.494ZM42.4992 212.748L59.7379 202.608C65.6799 212.709 58.6567 226.082 46.2703 226.082V206.082V186.082C27.0524 186.082 15.8569 206.902 25.2604 222.888L42.4992 212.748ZM46.2703 206.082V226.082C64.0774 226.082 75.9062 207.582 68.3821 191.406L50.2477 199.841L32.1134 208.275C27.2943 197.915 34.8592 186.082 46.2703 186.082V206.082ZM50.2477 199.841L68.3948 191.433C64.8857 183.859 62.2451 176.299 59.6058 167.426L40.4359 173.129L21.2661 178.831C24.2204 188.763 27.4944 198.306 32.1007 208.248L50.2477 199.841ZM40.4359 173.129L60.2054 170.101C59.5092 165.555 57.6396 160.272 53.3731 155.802C49.0978 151.323 44.0807 149.404 40.2649 148.597C36.7104 147.845 33.5145 147.911 31.7706 147.983C30.8205 148.022 29.9142 148.086 29.3083 148.129C28.6075 148.178 28.2299 148.204 27.892 148.219L28.8131 168.198L29.7342 188.177C30.6428 188.135 31.5325 188.071 32.099 188.031C32.7604 187.985 33.1213 187.962 33.4176 187.949C34.1664 187.918 33.3797 188.025 31.9844 187.73C30.3279 187.38 27.2199 186.335 24.4372 183.419C21.6633 180.513 20.8698 177.485 20.6664 176.157L40.4359 173.129ZM28.8131 168.198L27.8592 148.221C34.8787 147.886 41.1357 152.227 43.3857 158.708L24.4918 165.267L5.59789 171.826C9.10877 181.939 18.8962 188.694 29.767 188.175L28.8131 168.198ZM24.4918 165.267L43.3644 158.647C38.331 144.298 38.9015 121.726 45.3718 96.8305C51.7377 72.3367 62.8925 49.1884 75.0636 34.4607L59.6469 21.7201L44.2301 8.97946C27.4588 29.2736 14.1013 58.1293 6.65794 86.7688C-0.681064 115.007 -3.21687 146.697 5.61923 171.887L24.4918 165.267ZM59.6469 21.7201L75.0443 34.4841C69.5155 41.1535 59.7771 41.9808 53.218 36.6949L65.7678 21.1224L78.3175 5.54986C68.0217 -2.74741 52.8272 -1.39138 44.2494 8.95606L59.6469 21.7201ZM65.7678 21.1224L53.2306 36.7051C85.4175 62.6012 117.54 88.4576 149.284 114.001L161.822 98.4187L174.36 82.8368C142.626 57.301 110.491 31.4349 78.3049 5.53971L65.7678 21.1224ZM161.822 98.4187L149.34 114.045C156.851 120.045 167.191 121.077 175.744 116.661L166.568 98.8899L157.392 81.119C162.873 78.2891 169.498 78.9527 174.305 82.7921L161.822 98.4187ZM166.568 98.8899L175.667 116.7C216.923 95.6225 251.65 87.2455 284.065 87.9594C316.564 88.6751 348.485 98.5639 384.127 116.798L393.236 98.9933L402.345 81.1883C363.332 61.2286 325.385 48.8596 284.946 47.9691C244.422 47.0766 203.143 57.745 157.469 81.0796L166.568 98.8899ZM393.236 98.9933L384.06 116.764C392.613 121.18 402.952 120.149 410.464 114.149L397.981 98.5221L385.499 82.8956C390.305 79.0562 396.931 78.3926 402.412 81.2225L393.236 98.9933ZM397.981 98.5221L410.519 114.104C442.259 88.5642 474.468 62.6461 506.894 36.5553L494.357 20.973L481.819 5.3907C449.392 31.482 417.182 57.4012 385.443 82.9402L397.981 98.5221ZM494.357 20.973L506.895 36.5548C500.342 41.8281 490.686 40.9812 485.173 34.4632L500.443 21.5477L515.714 8.63219C507.129 -1.51792 492.086 -2.87059 481.819 5.3912L494.357 20.973ZM500.443 21.5477L485.201 34.4968C487.691 37.4269 491.808 43.5915 496.078 51.1811C500.294 58.6744 503.791 66.0148 505.497 70.8681L524.365 64.2359L543.234 57.6037C540.435 49.6413 535.696 40.0225 530.94 31.5681C526.237 23.2099 520.647 14.4383 515.685 8.59855L500.443 21.5477ZM524.365 64.2359L505.494 70.8603C501.986 60.8656 509.334 50.1093 520.227 50.1093V70.1093V90.1093C537.196 90.1093 548.762 73.3531 543.236 57.6115L524.365 64.2359ZM520.227 70.1093V50.1093H518.313V70.1093V90.1093H520.227V70.1093ZM518.313 70.1093V50.1093C501.351 50.1093 489.819 66.8533 495.289 82.5519L514.175 75.9711L533.062 69.3904C536.537 79.365 529.224 90.1093 518.313 90.1093V70.1093ZM514.175 75.9711L495.304 82.5957C497.852 89.8548 499.744 96.4389 501.462 104.156L520.984 99.8094L540.506 95.4626C538.442 86.192 536.115 78.087 533.046 69.3465L514.175 75.9711ZM520.984 99.8094L501.46 104.148C503.936 115.286 513.809 123.246 525.259 123.246V103.246V83.2461C532.606 83.2461 538.926 88.3552 540.508 95.4704L520.984 99.8094ZM525.259 103.246V123.246H532.183V103.246V83.2461H525.259V103.246ZM532.183 103.246V123.246C524.683 123.246 518.591 118.031 517 111.258L536.47 106.683L555.939 102.108C553.408 91.3345 543.786 83.2461 532.183 83.2461V103.246ZM536.47 106.683L516.992 111.224C521.946 132.474 520.887 151.692 512.59 170.418L530.876 178.519L549.161 186.621C561.52 158.727 562.547 130.453 555.947 102.142L536.47 106.683ZM530.876 178.519L512.708 170.157C512.274 171.101 511.835 172.216 511.469 173.499L530.704 178.979L549.938 184.46C549.665 185.421 549.341 186.237 549.044 186.882L530.876 178.519ZM530.704 178.979L511.536 173.269C502.878 202.334 490.563 221.204 470.4 226.003L475.031 245.46L479.662 264.916C522.565 254.704 540.649 215.646 549.871 184.689L530.704 178.979ZM475.031 245.46L470.415 226C453.265 230.068 445.339 250.985 457.168 265.309L472.59 252.574L488.011 239.84C495.645 249.084 490.402 262.369 479.647 264.92L475.031 245.46ZM472.59 252.574L457.157 265.296C465.098 274.928 475.339 281.088 478.375 283.257C479.313 283.926 479.524 284.132 479.42 284.036C479.362 283.981 478.206 282.93 477.157 280.867C475.926 278.446 475.131 275.175 475.636 271.581C476.094 268.32 477.42 266.266 477.915 265.582L494.116 277.309L510.317 289.036C512.36 286.215 514.534 282.221 515.247 277.148C516.006 271.743 514.872 266.788 512.814 262.74C509.473 256.17 503.61 252.125 501.621 250.705C495.23 246.141 491.613 244.209 488.022 239.853L472.59 252.574ZM494.116 277.309L476.982 266.994C469.741 279.02 461.011 286.856 452.98 288.751L457.574 308.216L462.168 327.681C485.888 322.083 502.008 302.977 511.251 287.625L494.116 277.309ZM457.574 308.216L453.013 288.743C443.982 290.858 437.343 297.772 435.072 306.081L454.365 311.354L473.657 316.627C472.234 321.833 468.025 326.31 462.135 327.689L457.574 308.216ZM454.365 311.354L435.072 306.082C426.632 336.966 408.404 360.775 389.504 390.873C371.293 419.876 353.792 453.37 357.547 497.415L377.475 495.716L397.403 494.016C394.797 463.455 406.284 439.371 423.38 412.145C439.787 386.015 463.185 354.947 473.657 316.626L454.365 311.354ZM377.475 495.716V515.716H377.487V495.716V475.716H377.475V495.716ZM500.031 100.809L519.046 94.6127C515.961 85.1452 513.449 75.7286 510.211 64.4444L490.987 69.9598L471.762 75.4753C474.738 85.8456 477.635 96.6352 481.015 107.006L500.031 100.809ZM490.987 69.9598V89.9598H506.197V69.9598V49.9598H490.987V69.9598ZM506.197 69.9598L524.591 62.1058C521.001 53.6984 517.858 46.3493 514.374 38.2008L495.984 46.0641L477.595 53.9273C481.08 62.0772 484.219 69.4172 487.804 77.8139L506.197 69.9598ZM495.984 46.0641L484.963 29.375C467.585 40.8518 453.587 55.0143 441.424 67.2675C428.77 80.0149 418.194 90.5832 406.004 98.4262L416.825 115.246L427.647 132.065C444.147 121.449 457.756 107.593 469.813 95.4473C482.359 82.8077 493.596 71.609 507.006 62.7531L495.984 46.0641ZM416.825 115.246L399.787 125.718C418.922 156.852 432.713 188.064 441.869 222.789L461.208 217.691L480.547 212.592C470.308 173.756 454.87 138.948 433.864 104.773L416.825 115.246ZM461.208 217.691L442.122 223.67C443.549 228.224 446.981 236.169 455.491 240.651C465.258 245.795 474.797 242.993 480.619 239.713L470.802 222.288L460.984 204.864C461.993 204.295 467.548 201.793 474.129 205.259C476.871 206.702 478.479 208.588 479.282 209.776C479.688 210.376 479.938 210.866 480.078 211.174C480.22 211.484 480.282 211.676 480.293 211.711L461.208 217.691ZM470.802 222.288L478.171 240.881C505.604 230.008 521.34 207.67 529.632 184.279C537.829 161.154 539.386 135.541 537.936 113.962L517.981 115.303L498.026 116.644C499.246 134.799 497.732 154.547 491.93 170.915C486.223 187.017 477.035 198.304 463.433 203.695L470.802 222.288ZM143.23 117.659L156.991 103.146C130.442 77.9739 106.546 54.2753 77.5868 29.9918L64.7361 45.317L51.8855 60.6422C79.6188 83.8974 102.146 106.266 129.47 132.173L143.23 117.659ZM64.7361 45.317L46.6493 36.7808C27.6159 77.1095 11.2147 124.39 28.0884 174.387L47.0383 167.991L65.9881 161.596C54.4123 127.296 64.535 92.6023 82.823 53.8532L64.7361 45.317ZM47.0383 167.991V187.991H60.1054V167.991V147.991H47.0383V167.991ZM60.1054 167.991L41.8576 176.178C47.6699 189.133 53.2249 201.514 58.9282 214.261L77.1843 206.093L95.4403 197.925C89.7271 185.156 84.1636 172.756 78.3531 159.804L60.1054 167.991ZM77.1843 206.093V186.093H65.3437V206.093V226.093H77.1843V206.093ZM65.3437 206.093L49.3978 218.165C55.0291 225.604 63.1408 231.36 70.9738 235.164C78.7977 238.964 88.646 241.932 98.5989 241.474L97.679 221.495L96.759 201.516C95.4788 201.575 92.3747 201.09 88.4467 199.182C84.528 197.279 82.0886 195.077 81.2895 194.021L65.3437 206.093ZM97.679 221.495L117.243 225.646C124.788 190.086 139.055 157.679 159.451 129.343L143.219 117.659L126.987 105.975C103.253 138.948 86.7773 176.516 78.1145 217.344L97.679 221.495ZM143.219 117.659V137.659H143.23V117.659V97.6594H143.219V117.659ZM474.172 278.194L463.875 261.048C460.308 263.19 458.345 264.287 456.994 264.917C455.846 265.452 456.037 265.212 456.916 265.123C457.835 265.031 458.172 265.234 457.153 264.978C455.869 264.655 453.925 264.004 450.185 262.607L443.189 281.344L436.193 300.08C442.67 302.499 451.346 305.885 460.917 304.923C470.307 303.979 478.265 299.065 484.468 295.34L474.172 278.194ZM443.189 281.344L434.199 263.478C429.592 265.796 425.671 269.21 422.882 273.692C420.237 277.942 419.268 282.103 418.837 284.934C418.457 287.421 418.352 290.201 418.317 290.773C418.243 292 418.2 291.538 418.451 290.629L437.733 295.941L457.014 301.253C457.51 299.452 457.783 297.814 457.949 296.495C458.113 295.193 458.194 294.016 458.244 293.194C458.268 292.792 458.291 292.364 458.307 292.08C458.325 291.758 458.339 291.527 458.353 291.327C458.381 290.912 458.397 290.851 458.38 290.963C458.348 291.172 458.087 292.826 456.842 294.827C456.209 295.844 455.426 296.782 454.53 297.583C453.647 298.374 452.813 298.89 452.179 299.209L443.189 281.344ZM437.733 295.941L417.93 293.14C413.739 322.77 395.294 346.658 374.057 377.305C354.048 406.182 331.97 440.977 336.567 486.231L356.465 484.21L376.362 482.189C373.382 452.849 386.924 428.967 406.935 400.087C425.72 372.978 451.697 340.028 457.536 298.741L437.733 295.941ZM356.465 484.21L360.014 464.528C349.268 462.59 340.676 465.847 334.49 469.9C331.734 471.705 329.434 473.675 327.887 475.029C326.019 476.665 325.292 477.347 324.306 478.134L336.772 493.773L349.239 509.413C350.316 508.554 351.293 507.715 352.103 507.006C352.51 506.65 352.906 506.299 353.255 505.991C353.617 505.67 353.929 505.394 354.235 505.126C355.527 503.995 356.099 503.563 356.409 503.36C356.622 503.22 356.205 503.531 355.301 503.759C354.294 504.012 353.406 503.981 352.915 503.893L356.465 484.21ZM336.772 493.773L324.198 478.22C306.717 492.353 289.645 495.689 272.752 493.075C254.95 490.321 236.092 480.703 217.124 466.484L205.127 482.486L193.131 498.489C214.716 514.67 239.73 528.443 266.637 532.605C294.453 536.908 322.926 530.686 349.346 509.326L336.772 493.773ZM205.127 482.486L189.459 470.056C182.957 478.252 185.455 486.977 186.321 489.366C187.357 492.228 188.809 494.164 189.285 494.787C190.434 496.295 191.581 497.352 191.905 497.652C192.802 498.482 193.739 499.223 194.182 499.573C194.683 499.968 195.358 500.488 195.669 500.73C196.131 501.089 196.258 501.195 196.232 501.173C196.229 501.171 195.941 500.93 195.536 500.529C195.331 500.326 194.938 499.927 194.472 499.376C194.107 498.944 193.137 497.771 192.211 496.047C191.734 495.159 191.007 493.649 190.488 491.649C189.98 489.693 189.442 486.382 190.305 482.41C191.257 478.035 193.66 474.077 197.167 471.207C200.357 468.597 203.605 467.572 205.624 467.141C209.31 466.354 212.247 466.849 212.959 466.968C214.099 467.158 214.955 467.408 215.337 467.526C216.54 467.895 217.138 468.237 216.223 467.802C215.635 467.523 214.662 467.039 213.16 466.258L203.935 484.003L194.71 501.749C196.406 502.631 197.856 503.362 199.062 503.934C199.941 504.352 201.703 505.182 203.586 505.761C204.138 505.93 205.133 506.215 206.385 506.424C207.21 506.561 210.23 507.059 213.974 506.26C216.022 505.822 219.293 504.787 222.499 502.164C226.022 499.281 228.436 495.306 229.392 490.91C230.26 486.918 229.72 483.583 229.205 481.599C228.679 479.573 227.94 478.033 227.445 477.112C225.856 474.154 223.812 472.236 223.669 472.094C223.041 471.473 222.464 470.973 222.123 470.683C221.11 469.823 219.126 468.303 218.959 468.171C218.533 467.835 218.698 467.947 219.066 468.287C219.125 468.342 220.068 469.189 221.092 470.532C221.504 471.073 222.913 472.938 223.929 475.742C224.773 478.073 227.272 486.752 220.796 494.916L205.127 482.486ZM203.935 484.003L223.88 485.486C227.327 439.098 204.578 404.786 184.139 374.795C162.961 343.72 143.168 315.844 138.059 277.118L118.231 279.734L98.4028 282.35C104.962 332.07 130.893 367.692 151.085 397.322C172.017 428.036 186.285 451.635 183.99 482.521L203.935 484.003ZM118.231 279.734L106.021 263.894C104.673 264.933 103.953 265.17 103.848 265.202C103.784 265.222 103.792 265.214 103.849 265.208C103.904 265.203 103.931 265.208 103.902 265.205C103.835 265.198 103.377 265.138 102.395 264.711C101.382 264.271 100.076 263.558 98.3351 262.424L87.4202 279.183L76.5053 295.942C81.9051 299.459 89.8899 303.958 99.7457 304.988C110.549 306.117 120.989 302.86 130.441 295.575L118.231 279.734ZM87.4202 279.183L101.421 293.465C108.084 286.933 113.293 281.515 119.211 276.104L105.714 261.344L92.2175 246.585C85.6411 252.598 79.0439 259.387 73.4194 264.901L87.4202 279.183ZM105.714 261.344L119.206 276.108C135.598 261.128 139.576 241.623 142.115 227.659L122.438 224.081L102.76 220.503C100.233 234.4 97.8151 241.469 92.222 246.581L105.714 261.344ZM122.438 224.081L142.114 227.666C146.589 203.1 152.922 180.853 164.617 161.027L147.391 150.865L130.165 140.704C115.038 166.347 107.617 193.845 102.761 220.497L122.438 224.081ZM147.391 150.865L163.898 162.158C192.014 121.061 251.294 109.129 306.093 115.47L308.391 95.6027L310.69 75.7352C251.255 68.858 171.887 79.6387 130.884 139.572L147.391 150.865ZM308.391 95.6027L305.209 115.348C345.391 121.824 368.39 132.173 382.291 143.178C395.717 153.808 402.37 166.395 407.131 181.537C409.607 189.407 411.458 197.58 413.591 206.833C415.657 215.798 417.979 225.724 421.284 235.602C428.093 255.951 439.247 276.665 462.023 294.081L474.172 278.194L486.32 262.307C471.557 251.018 464.247 237.943 459.217 222.911C456.604 215.098 454.663 206.935 452.568 197.848C450.54 189.049 448.33 179.207 445.289 169.537C439.018 149.597 428.817 128.995 407.12 111.817C385.897 95.0149 355.503 82.938 311.574 75.8575L308.391 95.6027ZM150.165 267.942L141.42 285.928L217.3 322.824L226.046 304.837L234.791 286.85L158.911 249.955L150.165 267.942ZM226.046 304.837L207.671 296.94L201.126 312.17L219.501 320.066L237.876 327.963L244.421 312.734L226.046 304.837ZM219.501 320.066L227.646 301.8L148.442 266.48L140.296 284.746L132.15 303.012L211.355 338.332L219.501 320.066ZM140.296 284.746L157.542 294.874L167.411 278.07L150.165 267.942L132.919 257.813L123.05 274.617L140.296 284.746ZM265.247 325.492V345.492H294.167V325.492V305.492H265.247V325.492ZM294.167 325.492L280.604 340.19L309.329 366.695L322.891 351.996L336.454 337.298L307.729 310.793L294.167 325.492ZM322.891 351.996L309.612 337.041L280.888 362.546L294.167 377.501L307.446 392.457L336.17 366.952L322.891 351.996ZM294.167 377.501V357.501H265.282V377.501V397.501H294.167V377.501ZM265.282 377.501L279.12 363.062L251.909 336.982L238.07 351.422L224.231 365.861L251.443 391.941L265.282 377.501ZM238.07 351.422L251.876 365.892L279.053 339.962L265.247 325.492L251.441 311.021L224.264 336.951L238.07 351.422ZM333.941 305.228L315.668 313.357L322.259 328.172L340.532 320.043L358.805 311.914L352.215 297.099L333.941 305.228ZM340.532 320.043L348.683 338.307L428.266 302.791L420.115 284.527L411.964 266.264L332.381 301.78L340.532 320.043ZM420.115 284.527L437.715 275.028L428.763 258.442L411.163 267.942L393.563 277.441L402.515 294.027L420.115 284.527ZM411.163 267.942L402.467 249.931L325.245 287.217L333.941 305.228L342.637 323.238L419.859 285.952L411.163 267.942ZM257.235 316.112L272.612 303.324L239.52 263.533L224.143 276.321L208.766 289.109L241.858 328.901L257.235 316.112ZM224.143 276.321L209.486 262.713L202.07 270.701L216.727 284.309L231.384 297.917L238.8 289.928L224.143 276.321ZM216.727 284.309L200.331 295.762L221.938 326.692L238.334 315.239L254.729 303.786L233.123 272.856L216.727 284.309ZM238.334 315.239L226.217 299.327L207.35 313.695L219.467 329.606L231.583 345.518L250.45 331.151L238.334 315.239ZM219.467 329.606L203.236 341.292L211.42 352.659L227.651 340.974L243.882 329.288L235.697 317.921L219.467 329.606ZM227.651 340.974L240.518 356.285L270.102 331.424L257.235 316.112L244.368 300.801L214.784 325.662L227.651 340.974ZM299.29 317.377L314.598 330.248L348.046 290.468L332.738 277.597L317.429 264.726L283.982 304.506L299.29 317.377ZM332.738 277.597L318.143 291.271L325.628 299.26L340.222 285.585L354.817 271.91L347.332 263.922L332.738 277.597ZM340.222 285.585L323.883 274.051L302.059 304.97L318.398 316.503L334.738 328.037L356.562 297.118L340.222 285.585ZM318.398 316.503L306.354 332.47L325.416 346.849L337.46 330.882L349.504 314.915L330.442 300.537L318.398 316.503ZM337.46 330.882L321.289 319.114L313.025 330.47L329.196 342.238L345.367 354.007L353.631 342.651L337.46 330.882ZM329.196 342.238L341.981 326.859L312.076 301.997L299.29 317.377L286.505 332.756L316.41 357.618L329.196 342.238ZM356.992 230.725L373.902 220.044C371.953 216.959 370.336 214.391 368.307 211.155L351.364 221.782L334.421 232.41C336.472 235.679 338.111 238.283 340.082 241.405L356.992 230.725ZM351.364 221.782L342.679 203.767C331.31 209.247 320.33 214.524 308.431 220.259L317.114 238.276L325.797 256.293C337.556 250.626 348.768 245.236 360.049 239.798L351.364 221.782ZM317.114 238.276L300.543 249.474C303.623 254.031 305.705 257.123 308.044 260.589L324.622 249.402L341.201 238.215C338.886 234.785 336.773 231.647 333.686 227.078L317.114 238.276ZM324.622 249.402L334.611 266.729C345.399 260.51 355.925 254.439 367.001 248.047L357.003 230.725L347.006 213.403C335.937 219.791 325.417 225.858 314.633 232.075L324.622 249.402ZM357.003 230.725V210.725H356.992V230.725V250.725H357.003V230.725ZM500.432 102.694L500.142 122.692L515.203 122.911L515.493 102.913L515.783 82.9149L500.722 82.6965L500.432 102.694ZM515.493 102.913L496.054 107.614C499.894 123.495 499.587 145.862 493.566 165.646C487.468 185.683 476.983 198.822 464.012 203.495L470.79 222.311L477.569 241.127C507.318 230.41 523.901 203.354 531.833 177.293C539.842 150.977 540.526 121.341 534.933 98.2118L515.493 102.913ZM470.79 222.311L461.004 204.869C462.022 204.298 467.561 201.82 474.117 205.273C476.851 206.712 478.457 208.592 479.263 209.78C480.039 210.926 480.277 211.719 480.278 211.722L461.196 217.713L442.115 223.705C443.546 228.264 446.982 236.19 455.479 240.665C465.222 245.796 474.745 243.025 480.576 239.753L470.79 222.311ZM461.196 217.713L480.537 212.62C470.308 173.779 454.868 138.98 433.852 104.794L416.814 115.269L399.776 125.743C418.924 156.889 432.713 188.088 441.856 222.807L461.196 217.713ZM416.814 115.269L427.636 132.088C444.137 121.471 457.747 107.611 469.802 95.4652C482.348 82.8243 493.584 71.6278 506.99 62.779L495.973 46.0871L484.956 29.3952C467.574 40.8675 453.575 55.0322 441.412 67.287C428.757 80.0369 418.182 90.6068 405.992 98.4492L416.814 115.269ZM495.973 46.0871L477.584 53.9503C481.068 62.1002 484.207 69.4402 487.793 77.8369L506.186 69.9828L524.579 62.1288C520.989 53.7214 517.847 46.3722 514.362 38.2238L495.973 46.0871ZM506.186 69.9828V49.9828H490.975V69.9828V89.9828H506.186V69.9828ZM490.975 69.9828L471.746 75.4794C474.719 85.8812 477.61 96.6396 481.008 107.042L500.019 100.832L519.031 94.6223C515.941 85.1638 513.422 75.7388 510.205 64.4862L490.975 69.9828ZM143.219 117.682L126.985 106.001C103.254 138.982 86.7777 176.537 78.1145 217.367L97.679 221.518L117.243 225.669C124.788 190.111 139.054 157.714 159.453 129.364L143.219 117.682ZM97.679 221.518L96.7591 201.539C95.4788 201.598 92.3747 201.113 88.4467 199.205C84.528 197.302 82.0886 195.1 81.2895 194.044L65.3436 206.116L49.3978 218.188C55.0291 225.627 63.1408 231.383 70.9738 235.187C78.7977 238.987 88.646 241.955 98.5989 241.497L97.679 221.518ZM65.3436 206.116V226.116H77.1843V206.116V186.116H65.3436V206.116ZM77.1843 206.116L95.4342 197.934C89.7113 185.169 84.1565 172.789 78.3591 159.841L60.1053 168.014L41.8516 176.187C47.6541 189.146 53.2178 201.547 58.9344 214.298L77.1843 206.116ZM60.1053 168.014V148.014H47.0383V168.014V188.014H60.1053V168.014ZM47.0383 168.014L65.9881 161.619C54.4124 127.32 64.5344 92.6378 82.8239 53.8742L64.7361 45.34L46.6484 36.8058C27.6164 77.143 11.2145 124.412 28.0884 174.41L47.0383 168.014ZM64.7361 45.34L51.8861 60.6657C79.6075 83.909 102.145 106.289 129.47 132.196L143.23 117.682L156.991 103.169C130.443 77.9973 106.535 54.2866 77.5862 30.0143L64.7361 45.34ZM143.23 117.682V97.6824H143.219V117.682V137.682H143.23V117.682ZM387.585 353.445L374.939 368.939C377.423 370.966 377.58 372.082 377.26 371.124C377.068 370.55 376.558 368.686 377.089 365.999C377.683 362.989 379.38 360.108 381.881 358.118L394.336 373.766L406.792 389.414C418.159 380.366 418.063 367.01 415.192 358.431C412.422 350.152 406.619 343.164 400.231 337.95L387.585 353.445ZM394.336 373.766L412.986 366.541C412.827 366.13 412.245 364.579 411.567 363.074C410.966 361.739 409.663 358.98 407.492 356.304C405.876 354.312 399.598 347.195 388.83 347.96C378.242 348.713 372.862 356.446 371.256 359.022L388.227 369.605L405.197 380.188C405.035 380.448 401.007 387.195 391.667 387.859C382.147 388.536 377.014 382.227 376.43 381.506C375.29 380.102 374.905 379.078 375.099 379.508C375.216 379.768 375.307 380.011 375.687 380.99L394.336 373.766ZM388.227 369.605L371.246 359.038C360.302 376.625 348.058 395.327 337.385 414.55L354.871 424.258L372.357 433.966C382.385 415.904 393.593 398.836 405.208 380.171L388.227 369.605ZM354.871 424.258L337.38 414.561C331.54 425.095 329.295 436.989 328.375 446.392L348.28 448.338L368.186 450.284C368.871 443.274 370.34 437.605 372.363 433.956L354.871 424.258ZM348.28 448.338L328.398 446.171C326.976 459.215 314.882 470.384 298.303 472.688L301.056 492.497L303.808 512.307C332.895 508.266 364.197 486.884 368.163 450.505L348.28 448.338ZM301.056 492.497L297.853 472.755C282.923 475.178 265.607 474.766 252.442 470.086C240.19 465.73 233.442 458.733 232.046 447.067L212.188 449.441L192.329 451.816C196.001 482.516 216.647 499.812 239.043 507.774C260.526 515.412 285.111 515.346 304.258 512.239L301.056 492.497ZM212.188 449.441L232.063 447.209C229.323 422.809 217.631 403.066 207.798 387.049L190.753 397.512L173.709 407.975C183.66 424.187 190.675 437.086 192.313 451.673L212.188 449.441ZM190.753 397.512L207.796 387.045C201.676 377.081 194.14 366.93 188.541 358.765L172.047 370.076L155.553 381.387C162.47 391.474 168.254 399.093 173.711 407.979L190.753 397.512ZM172.047 370.076L189.014 359.487C187.67 357.335 183.301 350.648 174.55 348.535C163.246 345.805 155.629 352.631 153.065 355.565C150.499 358.503 149.062 361.654 148.526 362.84C148.165 363.639 147.859 364.383 147.652 364.891C147.394 365.52 147.317 365.716 147.211 365.968L165.628 373.766L184.045 381.564C184.854 379.653 184.625 380.092 184.984 379.297C185.27 378.664 184.735 380.112 183.191 381.88C181.649 383.645 175.171 389.834 165.162 387.417C161.143 386.447 158.517 384.41 157.213 383.188C155.906 381.964 155.241 380.923 155.08 380.665L172.047 370.076ZM165.628 373.766L177.968 358.027C180.475 359.992 182.225 362.882 182.843 365.961C183.394 368.707 182.866 370.612 182.672 371.189C182.353 372.135 182.548 370.941 185.224 368.74L172.517 353.295L159.81 337.851C153.418 343.109 147.567 350.11 144.769 358.407C141.846 367.075 141.8 380.498 153.287 389.505L165.628 373.766ZM172.517 353.295L152.695 355.96C156.764 386.225 181.239 400.834 202.088 407.566C223.342 414.429 247.214 415.528 263.107 415.28L262.794 395.282L262.482 375.285C248.206 375.508 229.461 374.371 214.379 369.501C198.892 364.501 193.313 357.881 192.338 350.63L172.517 353.295ZM262.794 395.282L263.55 415.268C273.186 414.904 283.771 415.239 297.412 415.152C310.257 415.07 324.644 414.578 338.509 412.318C365.697 407.885 397.474 395.245 406.953 358.432L387.585 353.445L368.217 348.457C364.801 361.723 354.098 369.248 332.073 372.839C321.331 374.59 309.428 375.074 297.155 375.153C285.679 375.226 272.319 374.908 262.039 375.297L262.794 395.282ZM351.937 402.156L350.319 382.221C338.139 383.21 325.035 386.081 316.038 387.533C306.022 389.149 297.827 389.744 289.789 388.307L286.269 407.994L282.749 427.682C297.407 430.303 310.859 428.886 322.409 427.022C334.978 424.994 343.36 422.917 353.555 422.09L351.937 402.156ZM286.269 407.994L289.19 388.209C283.637 387.389 277.732 387.323 271.98 388.154L274.841 407.948L277.703 427.743C279.424 427.494 281.428 427.496 283.348 427.78L286.269 407.994ZM274.841 407.948L271.181 388.286C262.895 389.829 254.577 389.175 244.224 387.492C234.743 385.951 221.45 383.056 208.331 382.42L207.362 402.397L206.394 422.373C216.509 422.864 225.223 424.929 237.807 426.974C249.52 428.878 263.324 430.436 278.501 427.611L274.841 407.948ZM207.362 402.397L189.299 410.983C192.573 417.87 194.298 425.163 196.694 434.943C198.906 443.967 201.792 455.57 208.074 466.445L225.393 456.441L242.711 446.437C239.651 441.141 237.849 434.825 235.545 425.421C233.425 416.773 230.806 405.13 225.425 393.811L207.362 402.397ZM225.393 456.441L244.445 462.525C247.988 451.431 251.521 440.351 254.678 430.419L235.617 424.362L216.556 418.305C213.408 428.21 209.881 439.269 206.34 450.357L225.393 456.441ZM235.617 424.362L233.447 444.244C265.069 447.695 295.376 447.528 326.465 444.362L324.439 424.465L322.413 404.568C293.897 407.471 266.411 407.603 237.787 404.48L235.617 424.362ZM324.439 424.465L305.355 430.448C308.521 440.548 311.962 451.497 315.423 462.508L334.503 456.51L353.582 450.512C350.121 439.501 346.684 428.566 343.523 418.482L324.439 424.465ZM334.503 456.51L353.207 463.593C356.989 453.605 359.715 443.632 362.201 434.851C364.766 425.784 367.148 417.695 370.417 409.765L351.926 402.144L333.434 394.523C329.195 404.811 326.276 414.9 323.712 423.959C321.068 433.303 318.837 441.404 315.799 449.428L334.503 456.51ZM351.926 402.144L337.718 416.221L337.73 416.232L351.937 402.156L366.144 388.079L366.133 388.067L351.926 402.144ZM320.347 433.281L315.401 413.902C291.597 419.978 268.207 419.716 244.168 414.055L239.583 433.522L234.998 452.99C264.741 459.994 294.696 460.469 325.293 452.66L320.347 433.281ZM239.583 433.522L219.606 432.556C219.611 432.46 219.512 433.404 218.8 436.479C218.274 438.754 217.277 442.743 216.58 446.065C215.868 449.461 215.04 454.024 214.986 458.587C214.943 462.159 215.187 471.225 222.046 478.468L236.568 464.717L251.091 450.965C253.516 453.526 254.398 456.122 254.712 457.365C255.022 458.593 254.98 459.286 254.983 459.068C254.989 458.534 255.141 457.077 255.728 454.277C256.331 451.404 256.954 449.023 257.77 445.499C258.4 442.776 259.366 438.492 259.56 434.489L239.583 433.522ZM276.561 475.107L276.029 495.1C295.962 495.63 314.313 491.095 331.404 483.095L322.926 464.981L314.447 446.867C302.218 452.591 290.01 455.458 277.092 455.114L276.561 475.107ZM322.926 464.981L334.6 481.22C344.362 474.202 344.846 463.133 344.896 459.72C344.967 454.916 344.122 450.057 343.413 446.549C342.698 443.016 341.689 438.913 341.131 436.466C340.376 433.154 340.313 432.302 340.323 432.595L320.335 433.281L300.347 433.967C300.489 438.099 301.51 442.63 302.132 445.358C302.951 448.953 303.613 451.547 304.207 454.48C304.478 455.818 304.665 456.914 304.78 457.797C304.836 458.229 304.868 458.562 304.885 458.805C304.902 459.052 304.9 459.153 304.901 459.13C304.901 459.113 304.904 458.879 304.96 458.475C305.015 458.079 305.142 457.371 305.446 456.459C306.053 454.641 307.614 451.357 311.251 448.742L322.926 464.981ZM320.335 433.281V453.281H320.347V433.281V413.281H320.335V433.281ZM204.737 229.725L221.788 240.179C223.869 236.785 225.107 234.758 227.267 231.237L210.216 220.782L193.166 210.328C191.336 213.312 189.412 216.458 187.687 219.271L204.737 229.725ZM210.216 220.782L201.335 238.702C212.43 244.201 223.098 249.47 234.641 255.194L243.526 237.276L252.411 219.358C240.96 213.68 230.033 208.283 219.098 202.863L210.216 220.782ZM243.526 237.276L226.8 226.31C223.855 230.803 221.737 234.019 219.493 237.445L236.225 248.402L252.956 259.359C255.228 255.889 257.214 252.875 260.252 248.242L243.526 237.276ZM236.225 248.402L246.424 231.198C235.936 224.98 225.705 218.914 214.948 212.527L204.737 229.725L194.527 246.922C205.296 253.316 215.537 259.388 226.025 265.606L236.225 248.402ZM395.838 337.031L406.617 320.185C407.947 321.036 408.803 321.853 409.206 322.265C409.65 322.718 409.917 323.062 410.032 323.216C410.158 323.384 410.218 323.483 410.231 323.504C410.246 323.529 410.249 323.536 410.251 323.539C410.251 323.54 410.278 323.592 410.325 323.711C410.366 323.815 410.477 324.105 410.603 324.57C410.709 324.961 410.956 325.948 411.051 327.348C411.123 328.392 411.287 331.764 409.596 335.75L391.184 327.94L372.772 320.129C370.918 324.5 371.03 328.397 371.144 330.07C371.283 332.1 371.668 333.821 371.991 335.017C372.646 337.437 373.584 339.648 374.476 341.432C375.393 343.266 376.563 345.248 377.975 347.139C379.172 348.744 381.506 351.605 385.059 353.878L395.838 337.031ZM391.184 327.94L406.996 340.186C406.153 341.276 405.353 341.966 404.837 342.358C404.302 342.765 403.843 343.025 403.492 343.197C402.948 343.462 401.925 343.879 400.242 343.976L399.093 324.009L397.944 304.042C393.465 304.3 389.323 305.602 385.943 307.252C382.639 308.865 378.598 311.528 375.372 315.694L391.184 327.94ZM399.093 324.009L393.738 343.278C392.463 342.924 390.763 342.037 389.316 340.325C387.898 338.648 387.143 336.673 386.958 334.812C386.573 330.932 388.564 328.815 389.185 328.363L400.95 344.537L412.715 360.711C422.185 353.822 427.941 342.746 426.763 330.863C425.543 318.564 417.015 308.232 404.449 304.739L399.093 324.009ZM400.95 344.537L389.579 328.084C390.35 327.551 390.595 327.551 390.23 327.665C389.918 327.763 389.946 327.692 390.46 327.692C390.795 327.692 393.155 327.705 396.045 329.522C397.604 330.502 399.144 331.913 400.36 333.769C401.569 335.614 402.151 337.428 402.388 338.857L382.656 342.123L362.925 345.389C364.168 352.902 368.352 359.36 374.755 363.386C380.437 366.958 386.365 367.695 390.49 367.692C398.368 367.686 406.556 364.974 412.321 360.99L400.95 344.537ZM382.656 342.123L392.167 359.717C391.681 359.98 391.63 359.866 392.867 359.63C393.496 359.511 394.229 359.398 395.35 359.238C396.342 359.096 397.815 358.892 399.277 358.642L395.907 338.928L392.536 319.214C391.745 319.349 390.949 319.46 389.675 319.642C388.531 319.806 387.003 320.029 385.395 320.334C382.159 320.95 377.735 322.048 373.145 324.529L382.656 342.123ZM395.907 338.928L415.893 338.203C415.872 337.605 415.842 336.78 415.796 335.937L395.826 337.043L375.857 338.149C375.879 338.547 375.896 338.986 375.92 339.653L395.907 338.928ZM395.826 337.043L409.977 351.176L409.989 351.165L395.838 337.031L381.687 322.898L381.676 322.909L395.826 337.043ZM163.977 338.87L160.527 358.57C161.983 358.826 163.456 359.037 164.451 359.185C165.575 359.351 166.318 359.469 166.957 359.594C168.218 359.84 168.205 359.962 167.757 359.719L177.285 342.135L186.814 324.55C182.25 322.077 177.847 320.964 174.615 320.334C173.007 320.02 171.478 319.789 170.325 319.618C169.043 319.428 168.235 319.312 167.428 319.17L163.977 338.87ZM177.285 342.135L158.264 335.954C158.774 334.385 159.958 332.256 162.189 330.49C164.343 328.784 166.545 328.15 168.037 327.964C170.55 327.652 171.424 328.448 170.904 328.144C170.457 327.883 171.28 328.118 172.081 329.962C172.557 331.056 173.029 332.803 172.838 334.981C172.64 337.244 171.804 339.041 170.973 340.18L154.819 328.388L138.665 316.596C131.743 326.078 131.546 337.052 135.399 345.912C138.813 353.764 144.965 359.315 150.721 362.679C156.403 366 164.352 368.73 172.971 367.659C183.076 366.402 192.551 359.872 196.306 348.315L177.285 342.135ZM154.819 328.388L172.986 336.752C172.026 338.837 170.271 340.957 167.747 342.428C165.347 343.826 162.974 344.225 161.151 344.191C157.968 344.131 154.91 342.75 152.723 339.873L168.642 327.767L184.562 315.661C179.062 308.428 170.473 304.357 161.897 304.198C152.329 304.019 141.781 308.885 136.652 320.024L154.819 328.388ZM168.642 327.767L150.293 335.723C148.619 331.862 148.708 328.576 148.772 327.432C148.852 325.994 149.098 324.972 149.206 324.559C149.428 323.713 149.619 323.378 149.541 323.538C149.498 323.626 149.47 323.654 149.554 323.535C149.603 323.464 149.76 323.245 150.042 322.925C150.293 322.64 150.872 322.012 151.796 321.284L164.184 336.985L176.572 352.687C181.284 348.969 184.175 343.775 185.495 341.068C186.335 339.345 187.261 337.138 187.901 334.694C188.219 333.481 188.595 331.728 188.71 329.659C188.809 327.884 188.838 324.069 186.992 319.811L168.642 327.767ZM164.184 336.985L144.301 334.822C144.24 335.385 144.148 336.212 144.07 337.065L163.989 338.87L183.907 340.676C183.944 340.264 183.99 339.85 184.066 339.148L164.184 336.985ZM163.989 338.87V318.87H163.977V338.87V358.87H163.989V338.87ZM151.495 304.94L151.939 324.936C151.016 324.956 147.834 324.673 144.702 321.758C141.595 318.868 140.26 314.928 140.403 311.378C140.71 303.717 147.007 299.718 151.273 299.688L151.415 319.687L151.556 339.687C167.215 339.576 179.765 328.065 180.371 312.983C180.662 305.721 177.987 298.093 171.951 292.475C165.888 286.834 158.186 284.787 151.051 284.945L151.495 304.94ZM151.415 319.687L149.354 299.794C154.468 299.264 159.029 301.684 161.6 304.791C163.674 307.296 164.17 309.74 164.226 311.349C164.278 312.862 164.004 316.304 161.023 319.754C159.409 321.622 157.201 323.202 154.56 324.091C151.969 324.964 149.735 324.915 148.309 324.685L151.495 304.94L154.68 285.196C146.014 283.798 136.959 286.425 130.758 293.601C125.396 299.806 124.058 307.213 124.25 312.735C124.444 318.355 126.282 324.854 130.786 330.295C135.788 336.338 143.868 340.576 153.475 339.581L151.415 319.687ZM408.733 319.676L408.352 299.679C410.167 299.645 413.027 300.301 415.584 302.638C417.955 304.804 419.427 307.874 419.592 311.241C419.762 314.705 418.506 318.697 415.333 321.672C412.11 324.692 408.806 324.949 407.869 324.917L408.561 304.929L409.253 284.941C402.011 284.69 394.143 286.709 387.978 292.487C381.861 298.221 379.285 305.967 379.64 313.2C380.375 328.173 392.976 339.979 409.114 339.672L408.733 319.676ZM408.561 304.929L411.612 324.695C410.142 324.922 407.884 324.948 405.289 324.052C402.649 323.142 400.46 321.549 398.868 319.69C395.929 316.26 395.656 312.857 395.701 311.374C395.75 309.79 396.221 307.413 398.2 304.944C400.629 301.914 405.096 299.312 410.359 299.742L408.733 319.676L407.107 339.609C416.737 340.395 424.623 335.934 429.41 329.963C433.745 324.554 435.512 318.154 435.683 312.601C435.85 307.149 434.524 299.829 429.246 293.667C423.138 286.538 414.173 283.826 405.51 285.163L408.561 304.929ZM351.937 402.156L333.443 394.541C329.212 404.817 326.291 414.905 323.725 423.966C321.077 433.313 318.843 441.422 315.808 449.445L334.514 456.522L353.221 463.598C356.994 453.621 359.723 443.651 362.211 434.866C364.78 425.796 367.165 417.7 370.431 409.77L351.937 402.156ZM334.514 456.522L353.594 450.523C350.149 439.566 346.696 428.542 343.528 418.474L324.45 424.477L305.372 430.479C308.555 440.594 311.956 451.454 315.435 462.52L334.514 456.522ZM324.45 424.477L322.424 404.58C293.909 407.483 266.422 407.615 237.798 404.491L235.628 424.373L233.459 444.255C265.081 447.706 295.388 447.539 326.476 444.374L324.45 424.477ZM235.628 424.373L216.574 418.296C213.411 428.214 209.879 439.288 206.346 450.387L225.404 456.453L244.462 462.519C247.99 451.434 251.519 440.371 254.683 430.45L235.628 424.373ZM225.404 456.453L242.725 446.454C239.663 441.149 237.86 434.829 235.556 425.428C233.436 416.78 230.817 405.141 225.437 393.822L207.374 402.408L189.311 410.994C192.585 417.882 194.31 425.174 196.706 434.95C198.918 443.974 201.803 455.573 208.083 466.451L225.404 456.453ZM207.374 402.408L206.415 422.385C216.52 422.871 225.238 424.933 237.822 426.976C249.534 428.877 263.342 430.436 278.514 427.61L274.853 407.948L271.191 388.287C262.911 389.829 254.591 389.175 244.232 387.493C234.746 385.953 221.45 383.061 208.333 382.431L207.374 402.408ZM274.853 407.948L277.655 427.751C279.454 427.497 281.46 427.505 283.3 427.783L286.281 408.006L289.261 388.229C283.627 387.38 277.725 387.343 272.051 388.146L274.853 407.948ZM286.281 408.006L282.761 427.694C297.418 430.314 310.868 428.897 322.417 427.034C334.983 425.006 343.366 422.929 353.566 422.102L351.948 402.167L350.331 382.233C338.144 383.221 325.042 386.092 316.044 387.544C306.03 389.16 297.839 389.755 289.8 388.318L286.281 408.006ZM351.948 402.167L366.08 388.015L366.069 388.003L351.937 402.156L337.805 416.308L337.817 416.319L351.948 402.167ZM320.347 433.281L300.361 434.028C300.514 438.119 301.526 442.62 302.146 445.344C302.959 448.914 303.622 451.531 304.21 454.451C304.479 455.788 304.666 456.886 304.78 457.772C304.836 458.205 304.868 458.54 304.885 458.786C304.903 459.036 304.901 459.141 304.901 459.122C304.901 459.11 304.904 458.882 304.959 458.485C305.013 458.096 305.137 457.397 305.436 456.494C306.03 454.701 307.57 451.421 311.193 448.793L322.937 464.981L334.682 481.17C344.375 474.137 344.846 463.104 344.897 459.715C344.968 454.922 344.131 450.073 343.424 446.561C342.711 443.014 341.711 438.935 341.149 436.468C340.395 433.154 340.323 432.276 340.333 432.534L320.347 433.281ZM322.937 464.981L314.464 446.865C302.218 452.592 290.019 455.458 277.092 455.114L276.561 475.107L276.029 495.1C295.976 495.63 314.313 491.094 331.41 483.098L322.937 464.981ZM236.568 464.717L251.025 450.896C253.472 453.456 254.371 456.064 254.692 457.327C255.009 458.571 254.967 459.278 254.97 459.067C254.976 458.546 255.126 457.099 255.716 454.298C256.323 451.418 256.946 449.051 257.767 445.513C258.399 442.789 259.372 438.487 259.561 434.46L239.583 433.522L219.605 432.585C219.611 432.466 219.517 433.392 218.803 436.468C218.278 438.731 217.274 442.737 216.575 446.053C215.86 449.449 215.026 454.022 214.973 458.598C214.931 462.185 215.184 471.291 222.112 478.537L236.568 464.717ZM239.583 433.522L234.998 452.99C264.741 459.995 294.685 460.469 325.291 452.66L320.347 433.281L315.403 413.902C291.585 419.978 268.206 419.716 244.168 414.055L239.583 433.522ZM286.407 365.674L304.696 373.767C305.244 372.529 305.717 371.344 306.079 370.425C306.487 369.388 306.723 368.773 307 368.099C307.572 366.705 307.65 366.765 307.288 367.282C306.785 368.001 305.298 369.808 302.525 371.019C299.701 372.253 297.448 372.04 296.832 371.933L300.242 352.226L303.651 332.519C298.319 331.596 292.35 331.814 286.513 334.364C280.727 336.891 276.93 340.9 274.52 344.342C272.251 347.583 270.825 350.89 269.998 352.904C268.791 355.844 268.801 356.037 268.117 357.581L286.407 365.674ZM300.242 352.226V372.226C294.569 372.226 290.611 369.848 288.971 368.711C287.134 367.438 285.939 366.14 285.368 365.479C284.204 364.132 283.552 362.98 283.365 362.646C282.89 361.797 282.689 361.241 282.625 361.063C282.571 360.912 282.321 360.214 282.137 359.046C282.055 358.52 281.853 357.096 281.984 355.192C282.061 354.071 282.445 348.436 287.128 343.371L301.812 356.95L316.496 370.529C321.325 365.307 321.788 359.406 321.889 357.939C322.044 355.69 321.811 353.844 321.654 352.845C321.322 350.732 320.752 348.892 320.305 347.639C319.85 346.36 319.183 344.74 318.267 343.105C317.86 342.378 316.994 340.9 315.634 339.327C314.966 338.553 313.677 337.167 311.754 335.834C310.026 334.636 305.987 332.226 300.242 332.226V352.226ZM301.812 356.95L288.701 341.847C289.443 341.203 289.888 341.049 289.199 341.401C288.861 341.574 288.485 341.754 287.778 342.092C287.165 342.384 286.244 342.824 285.288 343.32C281.459 345.306 273.795 349.785 269.969 359.617L288.607 366.869L307.246 374.122C306.561 375.882 305.474 377.273 304.462 378.189C303.636 378.936 303.097 379.143 303.705 378.828C303.995 378.677 304.35 378.505 305.016 378.187C305.588 377.914 306.492 377.484 307.411 377.015C309.233 376.083 312.09 374.513 314.923 372.053L301.812 356.95ZM288.607 366.869L298.224 349.333C297.509 348.941 296.669 348.48 295.81 348.022L286.407 365.674L277.003 383.326C277.612 383.65 278.239 383.993 278.991 384.406L288.607 366.869ZM272.079 367.295L289.928 358.273C288.325 355.102 286.267 352.346 283.844 350.029C281.447 347.736 278.961 346.127 276.737 344.975C274.571 343.854 272.593 343.139 271.268 342.696C270.614 342.477 269.991 342.282 269.613 342.164C269.162 342.022 268.985 341.965 268.863 341.924C268.506 341.802 269.482 342.087 270.808 342.907C272.356 343.863 274.633 345.693 276.336 348.763C278.03 351.818 278.355 354.655 278.33 356.375C278.308 357.917 278.011 358.684 278.136 358.277L259.023 352.387L239.91 346.497C238.531 350.971 236.604 359.598 241.357 368.166C246.057 376.639 254.263 379.207 255.954 379.784C262.457 382.001 256.407 380.626 254.229 376.316L272.079 367.295ZM259.023 352.387L263.671 371.84C263.078 371.981 261.57 372.205 259.53 371.66C257.387 371.087 255.464 369.873 254.07 368.312C251.48 365.413 252.316 363.424 252.137 365.771L272.079 367.295L292.021 368.818C292.678 360.212 291.147 349.775 283.9 341.663C275.825 332.624 264.358 330.549 254.375 332.935L259.023 352.387Z" fill="#D1D1D1" mask="url(#path-1-outside-1_329_5)"/>
</svg>
